<svg width="1290" height="806" viewBox="0 0 1290 806" fill="none" xmlns="http://www.w3.org/2000/svg">
<path d="M512.5 572.578C505.167 589.078 470 618.078 438 624.578C442.366 630.77 492.5 651.078 510 645.578C527.5 640.078 556.461 617.078 562 605.078C567.538 593.078 561 577.078 554.5 572.578C548 568.078 519.833 556.078 512.5 572.578Z" fill="#F5FFF0"/>
<path d="M214 636.578C258 591.078 321.5 597.078 321.5 597.078C351.262 597.713 361.5 606.578 347.5 611.578C333.5 616.578 357 661.078 321.5 699.078C286 737.078 244 720.078 197 762.578C201 730.578 170 682.078 214 636.578Z" fill="#F5FFF0"/>
<path d="M275.5 559.578C271.504 590.18 281.409 585.052 297.496 592.578L228.497 579.578C220.263 561.493 219.792 551.79 202.996 538.078C202.996 538.078 152.497 505.078 151.997 459.078C151.497 413.078 180 401.078 193.996 364.078C193.996 364.078 203.493 384.578 236.496 410.578C269.5 436.578 308.004 485.078 275.5 559.578Z" fill="#F5FFF0"/>
<path d="M363 615.078C388.133 631.965 402.551 636.82 429.5 628.078C411.471 626.951 402.185 627.205 366.5 607.078C344.032 593.549 330.739 593.094 307 592.578C269.129 592.12 252.922 582.44 223 567.078C203.428 559.546 192 554.078 172 525.578C142 493.078 122.507 487.286 71.5 496.578C42.5 503.578 27.5 515.578 0 519.578C18.7046 536.33 27.3105 546.6 40.8388 567.078L41.0482 567.363C60.2302 593.394 91.9362 636.42 211.5 593.078C220.348 588.743 228.836 587.252 248.5 589.078C270 593.078 269.5 600.078 296.5 600.078C321.019 598.195 335.213 599.517 363 615.078Z" fill="#E4FFD8"/>
<path d="M684 569.078L719.5 549.078C739 579.578 736.274 606.48 766 626.578C829.5 651.578 856 666.578 891 690.578C906.5 699.078 915.658 699.211 925.5 687.578C951.374 659.045 972.927 651.608 1016.5 644.578C1035.77 636.87 1043.09 628.588 1048 604.578C1070 463.078 1149.5 472.578 1217 460.078C1204.47 480.154 1199.18 492.687 1202 524.078C1204.33 550.078 1185.5 599.078 1110.5 618.578C1090.5 621.078 1083.5 626.578 1080 637.578C1099.41 636.654 1102 634.291 1121.5 626.578C1188.5 600.078 1230.5 614.578 1262.5 669.578C1271.5 688.078 1273 704.578 1289.5 720.578C1262 719.578 1263 718.578 1208 737.578C1121.5 756.078 1072.5 714.078 1053 678.578C1043 652.578 1020.5 654.078 996 660.578C932.5 687.578 930.993 704.009 953.5 720.578C953.5 720.578 1006 751.578 1036 758.078C1036 767.578 907.5 723.578 873.5 699.078C830 664.578 799 646.578 738 637.078C697 635.078 640.5 660.078 637 672.078C633.5 739.578 604.5 766.078 559 773.578L560.5 762.578C547 779.078 524 785.078 494.5 787.578L493.893 787.705C478.064 791.021 470.175 792.673 451 805.078C455.666 795.901 459.205 789.68 459.5 772.078C457.867 730.906 458.444 708.322 498.5 681.078H485C510.566 635.827 529.264 616.623 604.5 641.578C620.842 649.55 630.437 652.361 650.5 646.078C683.483 632.797 699.5 623.578 728.5 622.078C723.597 595.048 699.5 593.578 684 569.078Z" fill="#E4FFD8"/>
<path d="M994.631 638.578C975.631 647.578 966.745 655.43 966.131 672.078L951.631 675.078C954.131 656.078 949.131 649.078 935.631 640.578C904.631 615.578 907.481 591.078 907.631 585.078C908.256 560.078 910.935 548.796 929.131 532.578C929.131 538.078 934.131 541.078 937.631 542.578C937.894 530.146 940.259 524.329 954.631 510.578C966.131 502.078 972.631 499.578 980.631 486.578C986.131 501.078 992.425 497.078 1011.13 523.578C1041.13 566.078 1018.13 627.447 994.631 638.578Z" fill="#CCFFB6"/>
<path d="M340.5 542.078C361.5 550.078 368 554.078 392 548.078C412.5 559.578 442 551.078 456 542.078C470 533.078 581.5 490.078 587.5 480.078C593.5 470.078 579 442.078 569 441.078C559 440.078 394.5 501.578 378 504.078C361.5 506.578 344.5 521.078 340.5 542.078Z" fill="#FFFDF6"/>
<path d="M603.001 602.078C544.5 629.078 504 627.078 489.5 594.578C462 597.578 434.397 577.358 449.5 536.578C449.5 536.578 484.001 429.578 493.001 424.578C502.001 419.578 721.5 431.078 727.5 437.578C733.5 444.078 745.501 485.078 760 523.578C774.499 562.078 743.5 622.578 665.501 597.578C644.5 620.578 618 620.578 603.001 602.078Z" fill="#FFFCF1"/>
<path d="M844.5 479.079C843 522.579 808 541.079 769 533.079C684.5 588.079 618 505.579 617 482.079C616 458.579 614.001 452.579 622.5 433.079C631 413.578 847 348.578 859.5 350.578C872 352.578 909.001 373.579 909.001 373.579C929 394.079 907 417.579 892.001 427.579C894.5 451.579 882.329 458.307 862.501 468.079C859.356 469.244 858.43 471.302 858.001 477.079C852.49 476.915 849.451 476.559 844.5 479.079Z" fill="#FFFAE8"/>
<path d="M280 216.078C257.5 216.078 253 235.078 262 258.078C245.5 288.078 278 322.078 288 330.578C298 339.078 452.5 452.578 462 453.078C471.5 453.578 501 417.578 503 406.578C505 395.578 422.5 281.578 405.5 261.078C388.5 240.578 338.5 203.078 332.5 200.078C326.5 197.078 285.5 183.078 280 216.078Z" fill="#FFFAE6"/>
<path d="M326 464.578C299 464.578 274.5 440.578 277.5 416.078C277.988 412.09 271.5 398.578 254.5 388.078C237.5 377.578 236.054 364.579 233.5 361.578C236.781 359.375 241.39 358.884 246.5 358.578C243 323.078 313.5 336.578 336 354.078C358.5 371.578 414.519 418.699 485 438.078C564.061 459.817 633.592 439.878 636.5 443.578C642 450.578 643 464.578 631.5 464.578C620 464.578 523 481.078 513.5 485.578C504 490.078 466 517.578 419.5 500.078C374.5 512.578 333.5 502.578 326 464.578Z" fill="#FFF7DA"/>
<path d="M1051.5 295.578C1056 266.078 1040 248.578 1019.5 248.578C995.834 158.172 856.5 287.078 838.5 304.578C820.5 322.078 789.5 451.078 800.5 477.078C811.5 503.078 968 471.578 978 439.078C1011.5 430.578 1033 408.578 1025 381.078C1058 363.578 1073 316.078 1051.5 295.578Z" fill="#FFF6D7"/>
<path d="M766 351.078C785 326.579 829.5 365.578 878.5 256.078C906.886 241.039 902.317 367.519 865.5 397.078C828.684 426.637 757.5 445.578 735.5 436.078C713.5 426.578 747 375.578 766 351.078Z" fill="#FFF3C9"/>
<path d="M555.5 28.0783C534.5 18.5784 515 23.0784 510 37.5783C482.5 37.5783 466 74.5783 472.5 99.0783C479 123.578 509.5 170.078 518 174.078C526.5 178.078 598 157.578 603.5 153.078C609 148.578 607 47.0783 603.5 37.5783C600 28.0783 578 9.57839 555.5 28.0783Z" fill="#FFF2C3"/>
<path d="M696 23.0788C699 28.5788 709.5 26.0789 709.5 26.0789C722.001 6.57841 751.5 6.07841 763.5 26.0789C805.5 13.0784 817 69.5784 812.5 89.5784C808 109.578 781 191.079 771.5 195.079C762 199.079 584 150.578 577.5 137.078C571 123.578 597 38.5785 597 38.5785C651.5 -34.4216 693 17.5789 696 23.0788Z" fill="#FFEEB4"/>
<path d="M902.999 96.0784C895.5 73.5784 878.152 72.4366 861.499 79.5789C813.5 40.0787 732.5 213.078 721 237.079C709.5 261.079 792 340.578 804.5 343.578C817 346.578 894 288.057 911.5 272.078C929 256.1 1002.5 171.078 945.999 137.079C945.999 112.078 924 89.0784 902.999 96.0784Z" fill="#FFEBA6"/>
<path d="M384.5 86.0784C359 86.0784 340.5 113.078 346 148.578C322 160.078 323.158 188.578 332 209.578C340.842 230.578 380 289.578 387 293.078C394 296.578 500.501 246.579 505 239.578C509.5 232.578 485.038 131.078 482 110.578C478.963 90.0784 453 63.0784 428 73.0784C411 65.0784 392 70.0784 384.5 86.0784Z" fill="#FFEBA6"/>
<path d="M911.5 257.578C895 220.578 846 260.078 884 308.578C855.374 320.965 849.535 333.776 846 360.578C829 360.578 813 375.078 808.5 403.078C759.415 435.538 687 440.078 678 440.078C669 440.078 621 479.578 696 461.078C771 442.578 772 456.578 801.5 452.578C831 448.578 939.5 377.578 919 323.578C932.5 302.578 932.5 266.578 911.5 257.578Z" fill="#FFE794"/>
<path d="M414.499 157.578C374 174.078 375.885 239.078 383.499 255.578C391.114 272.078 414.499 303.578 425.999 307.578C437.499 311.578 533.999 258.078 538.999 249.578C543.999 241.078 536.332 153.078 530.499 135.578C524.665 118.078 492.5 92.5783 465.499 111.078C439.5 103.578 420.5 118.078 414.499 157.578Z" fill="#FFE381"/>
<path d="M604.5 95.0782C583.461 85.597 572 87.0784 564 100.078C533.5 100.078 528 148.578 529.5 159.578C531 170.578 550.5 217.578 555 223.078C559.5 228.578 653 215.078 656.5 211.078C660 207.078 661.333 157.078 660 141.078C658.666 125.078 638.5 79.5784 604.5 95.0782Z" fill="#FFDF6E"/>
<path d="M764.5 124.078C756 97.5784 737.134 89.9211 712 97.5784C669.5 80.5784 653.382 135.578 651 149.078C648.618 162.578 645 227.078 649 234.078C653 241.078 778.5 261.578 784.5 257.578C790.5 253.578 800.75 195.578 803.5 179.078C806.25 162.578 801 119.578 764.5 124.078Z" fill="#FFDC61"/>
<path d="M802.5 172.078C778.5 169.078 769 195.578 789.5 225.078C775.457 224.945 769.56 227.781 758.5 238.078C739 256.233 739.939 342.713 752.5 348.078C765.061 353.444 761.5 352.078 779 355.078C796.5 358.078 872.5 284.078 842 235.078C850 196.078 822.5 153.078 802.5 172.078Z" fill="#FFD648"/>
<path d="M382 207.579C382 207.579 385.81 225.542 382 239.079C405.5 246.578 406.092 308.6 408.5 380.579C363 345.079 332 291.578 352 253.079C348.5 230.578 355 178.578 389.5 186.079C382.064 194.113 382 207.579 382 207.579Z" fill="#FFD74A"/>
<path d="M553 156.078C533.753 150.19 523 155.579 515 165.579C487.236 167.205 481.791 207.58 486.5 217.079C491.209 226.577 522 291.579 529 296.579C536 301.579 610 286.079 615.5 280.579C621 275.079 618.5 201.078 615.5 184.078C612.5 167.078 589.5 129.078 553 156.078Z" fill="#FFD647"/>
<path d="M690.5 183.578C676.5 154.578 639 159.578 632.5 183.578C613 164.078 601 181.578 598.5 196.578C595.999 211.578 593.5 283.578 598.5 289.578C603.5 295.578 719.5 326.078 728 323.578C736.5 321.078 762.85 259.078 767.5 243.578C772.15 228.078 765.486 212.118 744 214.578C746.5 183.578 718.5 166.578 690.5 183.578Z" fill="#FFD02A"/>
<path d="M549.999 241.578C526 227.578 492.999 268.578 493.499 283.578C493.999 298.578 510.5 331.578 516 336.078C521.5 340.578 586 340.578 589.5 336.078C593 331.578 597 303.078 597 292.078C597 281.078 589.5 241.578 577.5 249.578C574.5 237.078 556.5 234.078 549.999 241.578Z" fill="#FFCD1F"/>
<path d="M670.5 255.079C659.5 245.078 643 242.578 627.5 261.078C590.5 251.578 578 301.579 575.5 310.579C573 319.578 570.5 333.579 573 351.079C575.5 368.578 591 392.578 601 400.578C611 408.578 748 399.578 754 395.578C760 391.578 772 340.578 775.5 314.578C779 288.578 744.5 261.078 722.5 283.578C715 261.078 698.5 243.078 670.5 255.079Z" fill="#FFC600"/>
<path d="M475 214.578C503 193.078 535.5 223.578 500.5 272.578C522.5 257.078 545 267.578 550 290.078C568 288.078 583 318.078 578 337.578C573 357.078 543.5 400.578 535.5 404.578C527.5 408.579 453 399.579 447 393.078C441 386.578 423 323.578 423 288.078C423 252.578 439.401 210.493 475 214.578Z" fill="#FFC600"/>
<path d="M771.5 428.078C726 459.578 692.901 466.243 646.501 470.578C646.501 470.578 639.501 470.578 639.001 462.578C638.501 454.578 651.501 377.578 661 360.078C670.499 342.578 702 319.078 723.5 343.578L723.545 343.629C725.61 345.984 733.051 354.468 740 339.578C747 324.578 802 297.078 805 360.078C802 397.578 793.699 406.383 771.5 428.078Z" fill="#F5BF00"/>
<path d="M449 444.078C478.5 457.078 521 458.078 526 452.078C531 446.078 501.999 398.578 474.5 375.078C469.776 334.273 457 312.578 427 316.078C427 295.078 424.5 283.578 408.5 278.578C391.5 283.078 388.88 296.253 391.5 321.578C376.5 349.578 385.198 405.852 449 444.078Z" fill="#F2BC00"/>
<path d="M513 459.078C566 487.078 632 484.078 659.5 459.078C673.183 441.68 680.371 426.323 680.5 404.078C677.238 371.098 669.824 362.704 649.5 360.578C632.5 327.578 611.502 322.863 578.5 338.578C547.766 320.089 528 330.078 520.5 365.078C493.369 353.302 475.5 348.578 467.5 380.578C464.879 417.987 482 438.078 513 459.078Z" fill="#E2B000"/>
</svg>
