<svg width="659" height="650" viewBox="0 0 659 650" fill="none" xmlns="http://www.w3.org/2000/svg">
<path d="M154.082 438.795L148.543 472.721C142.04 463.073 137.327 456.38 135.319 442.048C134.904 413.107 170.769 408.538 174.923 439.003C196.663 415.601 234.536 448.904 207.464 473.622C232.874 474.383 240.004 508.24 215.287 516.479C199.085 517.725 188.759 515.859 175.406 504.155L205.871 500.001L175.891 498.685C183.566 489.874 188.618 485.541 199.778 479.645C188.291 484.472 182.954 484.561 172.083 484.491L201.787 446.896L168.068 479.368C167.445 471.267 166.303 460.155 171.184 449.25C165.341 460.767 160.415 466.541 154.844 472.236L154.082 438.795Z" fill="#ECE8DA"/>
<path fill-rule="evenodd" clip-rule="evenodd" d="M0 649.315H659C653.584 592.443 590.392 578.902 564.212 621.331H51.4562L56.8726 611.4C50.2815 608.202 46.9425 607.789 38.8178 610.498C42.3915 601.563 41.0027 597.317 38.8843 590.841L38.8178 590.637L27.9849 596.054V92.3251C80.3438 54.41 46.9425 -4.26807 0.90274 0.245791L0 649.315ZM648.167 640.288C640.945 599.665 588.586 590.637 568.726 631.261H19.8603V86.9086C64.0945 58.9237 46.0397 14.6895 9.0274 7.46755V640.288H648.167Z" fill="#ECE8DA"/>
<path d="M598.516 633.969C609.21 636.519 615.669 634.872 623.793 629.455L617.474 625.844C624.696 626.747 625.599 625.844 627.404 624.941C618.377 607.789 590.392 615.914 583.17 626.747C588.586 630.358 594.906 631.261 602.127 629.455L598.516 633.969Z" fill="#ECE8DA"/>
<path d="M17.4231 55.3127C14.8734 44.6194 16.5203 38.1607 21.9368 30.036L25.5477 36.3552C24.645 29.1333 25.5477 28.2305 26.4505 26.4251C43.6025 35.4525 35.4779 63.4374 24.645 70.6593C21.034 65.2429 20.1313 58.9237 21.9368 51.7018L17.4231 55.3127Z" fill="#ECE8DA"/>
<path d="M92.6398 588.743L91.7362 609.506C91.7362 618.533 111.597 615.825 109.792 608.603L104.375 587.84L114.305 606.798C118.818 614.02 133.263 605.895 128.749 598.673L115.208 580.618L131.457 595.062C142.29 600.479 149.512 586.035 142.29 581.521L121.527 568.883L142.29 575.202C154.025 578.813 157.636 559.855 145.901 558.953L121.527 556.244L144.095 552.633C155.831 551.731 151.317 532.773 140.484 537.287C139.541 537.68 124.537 542.402 117.916 544.509L135.97 533.676C145.901 528.26 133.262 512.913 125.138 520.135L109.792 535.481L119.721 518.329C125.138 509.302 104.375 501.177 101.667 512.913L96.2507 532.773V512.913C95.3472 502.983 74.585 505.691 78.1952 515.621L83.6124 534.579L74.5842 516.524C70.0705 507.496 53.8212 515.621 60.1404 524.649L70.974 541.801L56.5294 528.259C47.502 521.038 36.6691 534.579 45.6973 540.898L63.7521 551.731L45.6973 547.217C32.1557 544.509 30.3503 562.564 42.0863 562.564L63.7521 564.369L43.8918 568.883C33.0585 572.494 37.5722 588.743 49.3078 585.132L70.974 576.105L54.7247 587.84C43.8918 595.062 56.5294 608.603 65.5572 600.479L80.0014 585.132L70.0705 603.187C66.4603 611.312 80.9034 617.631 85.4171 609.506L92.6398 588.743Z" fill="#ECE8DA"/>
<path d="M404.43 590.637C400.085 592.458 398.108 588.857 401.721 587.026C428.801 574.388 437.349 562.493 454.08 539.181C497.41 485.017 582.267 532.862 555.187 587.026C546.286 582.675 542.547 577.999 533.521 568.972C531.714 532.862 482.063 533.765 464.913 548.209C447.759 565.361 430.87 579.79 404.43 590.637Z" fill="#ECE8DA"/>
<path d="M459.495 562.652C456.786 564.458 455.884 561.75 457.689 559.944C468.468 549.165 479.461 542.701 492.896 541.889C521.109 540.186 548.866 564.458 507.34 583.416C508.242 551.82 485.674 551.82 459.495 562.652Z" fill="#ECE8DA"/>
<path d="M320.485 575.299C318.535 573.405 320.485 570.564 323.235 573.405C356.242 599.922 394.52 601.548 425.923 590.451C462.12 576.688 480.21 575.634 503.855 599.922C479.1 598.975 457.096 609.392 437.842 612.233C418.588 615.074 364.902 618.436 320.485 575.299Z" fill="#ECE8DA"/>
<path d="M250.962 549.844C273.491 553.978 282.449 559.469 293.39 576.926C287.071 559.774 278.044 555.26 255.475 548.941C276.238 543.525 293.39 545.33 307.834 568.801C326.941 593.595 334.548 602.073 347.555 609.425C329.045 613.035 320.662 609.149 306.932 598.592C307.834 622.063 272.627 612.133 269.016 585.953C264.786 570.497 261.251 562.037 250.962 549.844Z" fill="#ECE8DA"/>
<path d="M244.642 581.61C249.235 595.151 241.934 608.692 234.712 608.692C224.782 607.789 222.074 588.832 222.977 579.805C223.695 572.618 218.463 561.75 216.657 556.333C230.385 559.487 239.028 565.058 244.642 581.61Z" fill="#ECE8DA"/>
<path d="M238.323 609.595C253.67 600.568 252.767 564.458 220.268 555.431C244.642 556.333 258.183 562.652 262.697 586.124C264.503 602.373 251.864 608.692 238.323 609.595Z" fill="#ECE8DA"/>
<path d="M207.63 593.003C200.337 593.003 187.77 574.948 187.77 574.045L194.089 575.851L189.583 574.045C191.709 573.011 208.533 573.143 216.658 576.754C219.366 580.365 217.56 593.003 207.63 593.003Z" fill="#ECE8DA"/>
<path d="M185.964 568.972C175.131 572.583 160.045 553.796 159.785 552.722L167.91 552.722L160.688 551.82C162.577 550.06 176.959 544.039 190.478 549.111C194.992 551.82 195.94 565.647 185.964 568.972Z" fill="#ECE8DA"/>
<path d="M157.076 595.151C157.076 595.151 167.909 571.68 170.617 572.583C173.326 573.485 174.228 598.762 174.228 598.762C175.131 610.498 151.66 608.692 157.076 595.151Z" fill="#ECE8DA"/>
<path d="M182.96 605.264C182.96 605.264 177.171 578.585 180.029 577.624C182.886 576.664 199.719 597.403 199.719 597.403C207.942 606.724 187.003 620.125 182.96 605.264Z" fill="#ECE8DA"/>
<path d="M294.293 537.376C302.673 538.612 308.262 540.058 320.473 544.598C313.281 539.916 308.052 539.24 298.807 535.57C323.181 534.668 338.527 536.473 343.944 552.722C346.652 564.458 334.917 571.68 323.181 566.263C318.667 564.18 307.834 547.306 294.293 537.376Z" fill="#ECE8DA"/>
<path d="M299.295 524.949C306.164 519.993 311.178 517.133 323.097 511.874C314.678 513.531 310.457 516.692 301.271 520.508C318.115 502.867 330.375 493.461 345.587 501.333C355.711 507.858 352.333 521.217 340.144 525.517C335.456 527.17 315.925 522.627 299.295 524.949Z" fill="#ECE8DA"/>
<path d="M152.562 523.835C149.129 521.126 152.563 518.418 155.271 521.126C202.214 554.528 233.255 537.894 297.904 485.017C329.293 458.949 349.246 459.151 381.858 464.254C409.844 470.573 422.482 489.531 426.996 503.974C434.009 532.576 427.899 549.111 421.579 556.333C408.941 571.68 393.594 580.707 368.318 569.874C359.29 565.361 346.122 551.305 355.679 527.446C361.156 516.677 372.831 510.294 389.08 514.807C400.816 520.224 400.816 531.959 397.205 541.889C392.058 531.555 388.735 528.223 381.858 527.446C365.61 527.446 361.999 549.111 379.15 557.236C392.692 561.75 415.643 548.209 415.26 532.862C414.357 496.752 397.205 484.114 377.345 478.698C343.965 472.518 324.084 478.698 290.682 509.391C254.573 548.209 187.77 560.847 152.562 523.835Z" fill="#ECE8DA"/>
<path d="M60.8589 245.6C59.0379 249.944 62.6394 251.922 64.4699 248.308C77.1082 221.228 89.0034 212.681 112.315 195.95C166.479 152.62 118.634 67.7627 64.4699 94.8427C68.8213 103.743 73.4972 107.483 82.5246 116.508C118.634 118.316 117.731 167.967 103.288 185.117C86.1356 202.271 71.7063 219.16 60.8589 245.6Z" fill="#ECE8DA"/>
<path d="M88.8438 190.535C87.0383 193.243 89.7465 194.146 91.552 192.341C102.331 181.562 108.796 170.569 109.607 157.134C111.31 128.921 87.0383 101.164 68.0808 142.69C99.6767 141.787 99.6767 164.356 88.8438 190.535Z" fill="#ECE8DA"/>
<path d="M76.1979 329.545C78.092 331.495 80.9331 329.545 78.092 326.795C51.5749 293.788 49.9486 255.51 61.0453 224.107C74.8086 187.91 75.8631 169.82 51.5749 146.175C52.522 170.93 42.1046 192.934 39.2634 212.188C36.4223 231.442 33.0606 285.128 76.1979 329.545Z" fill="#ECE8DA"/>
<path d="M101.653 399.068C97.5188 376.539 92.0271 367.581 74.5704 356.639C91.7224 362.959 96.2361 371.986 102.555 394.554C107.972 373.791 106.166 356.639 82.695 342.196C57.9019 323.089 49.4235 315.482 42.0718 302.475C38.461 320.985 42.3476 329.367 52.9046 343.098C29.4334 342.196 39.3635 377.402 65.543 381.013C80.9992 385.244 89.4591 388.778 101.653 399.068Z" fill="#ECE8DA"/>
<path d="M67.7056 411.165C54.1645 406.572 40.6234 413.873 40.6234 421.095C41.5261 431.025 60.4836 433.733 69.511 432.831C76.6971 432.112 87.5658 437.344 92.9823 439.15C89.829 425.422 84.2571 416.779 67.7056 411.165Z" fill="#ECE8DA"/>
<path d="M39.7206 417.484C48.748 402.138 84.8576 403.04 93.885 435.539C92.9823 411.165 86.6631 397.624 63.1919 393.11C46.9425 391.305 40.6234 403.943 39.7206 417.484Z" fill="#ECE8DA"/>
<path d="M114.121 355.737C112.885 347.357 111.439 341.768 106.9 329.557C111.581 336.748 112.258 341.977 115.927 351.223C116.83 326.849 115.024 311.502 98.7749 306.086C87.0393 303.378 79.8174 315.113 85.2338 326.849C87.3171 331.363 104.191 342.195 114.121 355.737Z" fill="#ECE8DA"/>
<path d="M126.547 350.735C131.503 343.866 134.363 338.851 139.623 326.933C137.965 335.352 134.804 339.572 130.988 348.758C148.629 331.915 158.035 319.655 150.163 304.443C143.638 294.319 130.279 297.696 125.98 309.886C124.326 314.574 128.869 334.105 126.547 350.735Z" fill="#ECE8DA"/>
<path d="M127.662 497.467C130.37 500.901 133.078 497.467 130.37 494.759C96.9686 447.816 113.603 416.775 166.48 352.126C192.547 320.736 192.345 300.783 187.243 268.171C180.923 240.186 161.966 227.548 147.522 223.034C118.92 216.021 102.385 222.131 95.1631 228.45C79.8165 241.089 70.7891 256.435 81.622 281.712C86.1357 290.739 100.192 303.908 124.051 294.35C134.819 288.874 141.203 277.198 136.689 260.949C131.273 249.213 119.537 249.213 109.607 252.825C119.941 257.972 123.274 261.294 124.051 268.171C124.051 284.42 102.385 288.031 94.2604 270.88C89.7467 257.338 103.288 234.386 118.634 234.77C154.744 235.672 167.382 252.825 172.799 272.685C178.979 306.065 172.799 325.946 142.106 359.348C103.288 395.457 90.6494 462.26 127.662 497.467Z" fill="#ECE8DA"/>
<path d="M91.2095 491.296C87.8524 483.519 85.793 480.463 77.6684 470.533C88.5013 478.657 86.6958 478.657 91.9503 487.488C99.3343 475.949 92.0557 451.712 74.959 450.672C58.7109 447.964 48.6621 463.366 54.1959 475.046C62.3218 492.198 79.4726 484.074 91.2095 491.296Z" fill="#ECE8DA"/>
</svg>
