<svg width="423" height="345" viewBox="0 0 423 345" fill="none" xmlns="http://www.w3.org/2000/svg">
<path d="M415.646 73.7985C394.838 131.199 339.59 182.86 263.534 220.888L271.426 213.713C348.991 164.922 388.38 114.696 394.838 73.7985C396.991 40.7931 371.16 42.2281 346.765 49.4032C347.14 41.502 333.85 44.3806 311.607 52.2732C266.404 72.3634 239.139 96.7588 214.743 119.002V112.544C222.35 94.1661 227.094 86.7015 237.704 85.9962C253.601 64.9268 261.907 56.2989 273.579 57.2958C296.816 33.0918 317.857 23.2274 372.595 13.5278C426.638 8.40029 427.87 40.0756 415.646 73.7985Z" fill="#FFC3C3"/>
<path d="M168.107 254.61V243.848C109.988 241.695 104.963 230.848 86.3092 230.215C32.2561 228.383 30.3435 249.588 32.4966 254.61C22.4515 261.785 25.3209 272.548 33.931 276.853C30.3435 288.333 34.9828 295.728 44.6936 298.378C70.524 305.429 83.9826 295.591 109.988 279.005C137.9 257.668 149.625 253.581 168.107 254.61Z" fill="#FF9EA0"/>
<path d="M136.534 300.531C150.343 297.079 157.974 293.586 170.975 279.005C175.657 277.556 177.289 278.358 176.715 285.463C146.105 312.824 144.079 321.158 136.534 337.841C136.004 346.436 137.515 346.514 143.709 337.841C154.454 321.718 161.057 312.762 178.867 297.661C188.578 288.428 192.098 281.148 192.5 261.785C197.498 258.382 200.13 257.314 204.698 256.045C207.026 279.797 205.272 287.423 201.11 299.096C199.675 304.836 204.698 305.553 209.72 297.661C217.017 275.864 217.152 266.169 214.025 251.023C217.596 248.114 219.44 247.421 222.635 246.718C226.308 251.642 227.883 255.822 229.811 266.09C231.246 282.593 225.506 291.921 227.658 294.073C229.811 296.226 231.964 295.508 234.116 293.356C236.268 291.204 240.574 282.561 240.574 268.243C240.574 254.61 239.559 248.629 235.551 241.695C244.613 239.93 252.469 236.436 268.556 238.825C338.181 250.999 368.494 252.05 414.928 248.87C426.408 246.718 423.538 234.584 414.928 235.955C362.858 244.244 325.957 235.955 257.794 230.215C326.766 217.483 359.084 207.675 409.188 183.577C414.928 179.989 411.341 169.944 399.143 176.402C299.513 220.194 288.884 219.179 264.969 220.17C341.798 167.408 370.443 128.329 387.663 87.4306C397.708 57.2953 384.793 37.205 345.329 53.7077C345.329 32.1829 252.771 81.6909 206.851 131.199L211.873 162.052C234.116 134.787 243.444 124.741 262.816 123.306C282.189 97.4758 318.782 98.1933 311.607 134.786C330.98 152.006 308.019 172.814 275.014 205.82H270.709C298.692 177.837 331.697 149.136 308.019 135.504C318.782 102.498 279.319 100.346 264.969 126.176C249.184 124.741 235.551 136.466 209.72 167.074L201.11 227.345C212.562 227.335 224.788 218.017 231.964 207.255C257.076 154.159 277.167 154.877 259.229 202.232H254.924C270.709 162.052 261.55 157.029 234.116 209.407C226.223 224.475 210.438 228.78 193.936 232.367C122.46 252.737 129.36 268.243 121.467 285.463C115.816 305.002 120.965 306.113 136.534 300.531Z" fill="#FF7C7F"/>
<path d="M54.7388 302.684C75.5465 304.119 89.1792 294.791 116.445 276.136C117.493 275.418 129.36 266.091 129.36 266.091C125.772 271.831 125.055 276.136 124.337 278.288C102.094 294.791 109.269 293.356 74.1095 314.881C46.1286 324.209 35.0781 320.258 29.624 309.141C15.2758 309.141 5.94814 301.249 10.2512 284.028C-1.94457 274.701 -4.81447 258.916 10.2512 251.023C8.8182 227.345 33.931 220.888 74.1095 217.3C56.8913 202.95 46.0263 194.23 39.6711 177.12C21.0159 126.894 41.1061 94.6061 78.4146 79.5384C80.0679 70.2365 81.591 65.4965 92.7647 63.7532C93.8608 52.3377 97.7599 48.6393 109.267 45.8155C115.727 14.9627 137.252 -15.8902 167.386 9.22252C181.343 22.0986 188.25 31.5798 198.956 52.273C229.707 118.473 221.201 177.12 214.026 210.843C207.477 226.692 203.668 232.256 177.433 238.108C118.597 235.872 93.1999 209.408 76.9815 177.837C69.0889 162.474 69.8084 147.702 80.5691 139.809C79.8301 125.809 88.4617 108.956 112.139 102.499C110.53 84.0026 117.162 71.6458 140.122 73.7983C143.71 42.9455 155.908 28.5953 181.02 64.4708C203.981 99.6287 202.546 131.199 208.286 163.487L211.156 162.052C202.008 120.447 210.105 107.999 183.173 62.3183C156.625 22.1378 140.529 41.1168 137.252 70.9283C118.597 69.4933 108.552 79.5384 109.267 100.346C85.5916 108.956 78.4146 124.024 78.4146 138.374C67.6539 146.984 66.9364 160.617 74.1095 177.12C94.2018 215.865 115.727 235.123 172.41 240.26L169.538 242.413C146.963 241.606 122.185 237.844 109.269 233.085C95.6368 228.063 80.5691 227.345 65.5014 228.78C35.366 233.803 31.7785 238.825 29.624 253.176C19.5808 263.221 23.8859 272.548 31.7785 277.571C28.1909 294.074 35.366 299.096 54.7388 302.684Z" fill="#FF6265"/>
</svg>
