<svg width="401" height="293" viewBox="0 0 401 293" fill="none" xmlns="http://www.w3.org/2000/svg">
<path d="M3.2972 66.4558C63.0397 37.2165 174.372 99.3026 192.604 159.775C176.817 158.994 166.572 161.387 151.254 169.021C124.569 181.708 112.242 184.488 96.6708 185.582C82.6761 183.443 78.5313 175.83 81.389 167.585C68.2229 164.564 67.2654 159.295 67.1239 146.623C49.9829 147.198 47.7526 142.242 45.3755 132.257C30.9638 132.976 24.9977 126.177 23.9371 114.432C10.3811 111.286 5.56165 101.629 10.1428 90.9102C3.18249 86.5855 2.16448 80.8894 3.68373 73.812C0.864327 72.2229 -0.439249 68.0516 3.2972 66.4558Z" fill="#CBCBFF"/>
<path d="M357.819 3.096C291.647 -3.64003 208.712 93.1653 212.554 156.21C227.094 150.009 237.533 148.705 254.547 150.56C283.975 153.219 296.503 151.557 311.488 147.19C323.875 140.336 325.127 131.759 319.59 125.014C330.895 117.62 329.968 112.345 325.712 100.408C341.991 95.0108 342.366 89.5888 341.138 79.3987C354.906 75.0815 358.148 66.6364 355.075 55.2516C366.702 47.6049 367.878 36.8761 359.868 28.4078C364.899 21.9399 363.881 16.2438 360.005 10.1307C362.099 7.66345 361.877 3.29883 357.819 3.096Z" fill="#CBCBFF"/>
<path d="M188.162 163.576C200.017 162.395 203.267 168.396 204.505 182.311C203.923 230.986 191.946 264.373 171.997 258.348C168.495 264.959 161.163 265.234 157.19 263.779C154.586 261.483 151.438 262.814 148.272 267.538C145.68 271.404 145.474 273.257 142.994 274.36C137.024 275.547 136.184 274.339 135.648 271.341C136.536 265.923 139.298 262.336 138.173 256.04C127.755 253.453 126.011 249.698 124.54 242.08C116.446 243.526 102.662 216.6 120.101 196.467C129.779 184.838 150.098 167.366 188.162 163.576Z" fill="#CBCBFF"/>
<path d="M217.573 158.319C206.043 161.318 205.073 168.073 208.732 181.556C226.138 227.016 248.937 254.188 265.564 241.626C271.14 246.614 278.113 244.333 281.336 241.591C282.984 238.536 286.398 238.694 291.005 242.029C294.775 244.758 295.61 246.425 298.318 246.6C304.329 245.646 304.7 244.222 304.164 241.224C301.454 236.449 297.621 234.04 296.496 227.745C305.372 221.709 305.708 217.583 304.449 209.927C312.543 208.48 316.147 178.446 292.814 165.6C279.707 158.043 254.594 148.691 217.573 158.319Z" fill="#CBCBFF"/>
<path d="M209.36 215.586C198.202 188.578 192.628 163.508 196.063 153.304C190.109 149.418 187.999 143.439 191.071 137.49C180.341 120.101 174.857 108.14 156.054 106.005C153.934 104.528 154.975 99.9669 158.602 101.219C176.977 107.56 183.101 117.074 192.902 135.616C194.618 132.863 202.067 131.503 204.294 133.58C204.752 117.101 210.727 102.668 221.591 88.4143C224.267 86.0796 226.955 89.0024 225.885 91.6687C213.101 101.831 208.233 119.264 206.661 134.704C212.122 139.297 211.556 146.513 207.455 151.268C216.238 165.786 217.532 188.428 217.454 214.14C215.664 222.358 213.641 224.225 209.36 215.586Z" fill="#BCBCFF"/>
</svg>
