<svg width="76" height="26" viewBox="0 0 76 26" fill="none" xmlns="http://www.w3.org/2000/svg">
<line y1="1" x2="76" y2="1" stroke="#ECE8DA" stroke-width="2"/>
<line y1="25" x2="76" y2="25" stroke="#ECE8DA" stroke-width="2"/>
<line x1="1" y1="4" x2="1" y2="22" stroke="#ECE8DA" stroke-width="2"/>
<line x1="39" y1="4" x2="39" y2="22" stroke="#ECE8DA" stroke-width="2"/>
<line x1="5" y1="4" x2="5" y2="18" stroke="#ECE8DA" stroke-width="2"/>
<line x1="35" y1="4" x2="35" y2="18" stroke="#ECE8DA" stroke-width="2"/>
<line x1="18" y1="8" x2="18" y2="22" stroke="#ECE8DA" stroke-width="2"/>
<line x1="22" y1="8" x2="22" y2="22" stroke="#ECE8DA" stroke-width="2"/>
<line x1="43" y1="8" x2="43" y2="22" stroke="#ECE8DA" stroke-width="2"/>
<line x1="73" y1="8" x2="73" y2="22" stroke="#ECE8DA" stroke-width="2"/>
<line x1="56" y1="4" x2="56" y2="18" stroke="#ECE8DA" stroke-width="2"/>
<line x1="60" y1="4" x2="60" y2="18" stroke="#ECE8DA" stroke-width="2"/>
<line x1="14" y1="12" x2="14" y2="18" stroke="#ECE8DA" stroke-width="2"/>
<line x1="26" y1="12" x2="26" y2="18" stroke="#ECE8DA" stroke-width="2"/>
<line x1="47" y1="12" x2="47" y2="18" stroke="#ECE8DA" stroke-width="2"/>
<line x1="69" y1="12" x2="69" y2="18" stroke="#ECE8DA" stroke-width="2"/>
<line x1="9" y1="8" x2="9" y2="14" stroke="#ECE8DA" stroke-width="2"/>
<line x1="31" y1="8" x2="31" y2="14" stroke="#ECE8DA" stroke-width="2"/>
<line x1="52" y1="8" x2="52" y2="14" stroke="#ECE8DA" stroke-width="2"/>
<line x1="64" y1="8" x2="64" y2="14" stroke="#ECE8DA" stroke-width="2"/>
<line x1="15" y1="17" x2="4" y2="17" stroke="#ECE8DA" stroke-width="2"/>
<line x1="36" y1="17" x2="25" y2="17" stroke="#ECE8DA" stroke-width="2"/>
<line x1="57" y1="17" x2="46" y2="17" stroke="#ECE8DA" stroke-width="2"/>
<line x1="70" y1="17" x2="59" y2="17" stroke="#ECE8DA" stroke-width="2"/>
<line x1="15" y1="13" x2="8" y2="13" stroke="#ECE8DA" stroke-width="2"/>
<line x1="32" y1="13" x2="25" y2="13" stroke="#ECE8DA" stroke-width="2"/>
<line x1="53" y1="13" x2="46" y2="13" stroke="#ECE8DA" stroke-width="2"/>
<line x1="70" y1="13" x2="63" y2="13" stroke="#ECE8DA" stroke-width="2"/>
<line x1="19" y1="9" x2="8" y2="9" stroke="#ECE8DA" stroke-width="2"/>
<line x1="32" y1="9" x2="21" y2="9" stroke="#ECE8DA" stroke-width="2"/>
<line x1="53" y1="9" x2="42" y2="9" stroke="#ECE8DA" stroke-width="2"/>
<line x1="74" y1="9" x2="63" y2="9" stroke="#ECE8DA" stroke-width="2"/>
<line x1="19" y1="21" y2="21" stroke="#ECE8DA" stroke-width="2"/>
<line x1="57" y1="5" x2="38" y2="5" stroke="#ECE8DA" stroke-width="2"/>
<line x1="76" y1="5" x2="59" y2="5" stroke="#ECE8DA" stroke-width="2"/>
<line x1="40" y1="21" x2="21" y2="21" stroke="#ECE8DA" stroke-width="2"/>
<line x1="21" y1="5" x2="4" y2="5" stroke="#ECE8DA" stroke-width="2"/>
<line x1="36" y1="5" x2="4" y2="5" stroke="#ECE8DA" stroke-width="2"/>
<line x1="74" y1="21" x2="42" y2="21" stroke="#ECE8DA" stroke-width="2"/>
</svg>
