<svg xmlns="http://www.w3.org/2000/svg" version="1.1" xmlns:xlink="http://www.w3.org/1999/xlink" width="1000" height="1000"><metadata><rdf:RDF xmlns:rdf="http://www.w3.org/1999/02/22-rdf-syntax-ns#" xmlns:dc="http://purl.org/dc/elements/1.1/"><rdf:Description><dc:creator>RealFaviconGenerator</dc:creator><dc:source>https://realfavicongenerator.net</dc:source></rdf:Description></rdf:RDF></metadata><style>
    #light-icon {
      display: inline;
    }
    #dark-icon {
      display: none;
    }

    @media (prefers-color-scheme: dark) {
      #light-icon {
        display: none;
      }
      #dark-icon {
        display: inline;
      }
    }
  </style><g id="light-icon"><svg xmlns="http://www.w3.org/2000/svg" version="1.1" xmlns:xlink="http://www.w3.org/1999/xlink" width="1000" height="1000"><g><g transform="matrix(11.904761904761905,0,0,11.904761904761905,107.14285714285711,0)"><svg xmlns="http://www.w3.org/2000/svg" width="66" height="84" viewBox="0 0 66 84" fill="none"><line x1="2.13631" y1="42.8429" x2="38.8557" y2="6.12357" stroke="#232221" stroke-width="6"></line><path d="M11.3195 63.3233L53.6899 20.9529" stroke="#232221" stroke-width="6"></path><path d="M25.4593 77.4213L63.5657 39.315" stroke="#232221" stroke-width="6"></path><line x1="2.12132" y1="38.6232" x2="40.2368" y2="76.7387" stroke="#232221" stroke-width="6"></line><line x1="11.9803" y1="20.2295" x2="54.3836" y2="62.6328" stroke="#232221" stroke-width="6"></line><line x1="26.1542" y1="6.14315" x2="63.5473" y2="43.5363" stroke="#232221" stroke-width="6"></line><path d="M56.4117 60.4277C58.8454 62.7872 60.3608 66.0886 60.3609 69.7461C60.3609 76.9156 54.5489 82.7274 47.3795 82.7275C43.7219 82.7274 40.4206 81.2121 38.0611 78.7783L42.3023 74.5361C43.5752 75.8848 45.3785 76.7274 47.3795 76.7275C51.2352 76.7274 54.3609 73.6019 54.3609 69.7461C54.3608 67.7455 53.5179 65.9427 52.1695 64.6699L56.4117 60.4277Z" fill="#232221"></path><path d="M27.8497 79.2673C25.476 81.8454 22.0735 83.4616 18.293 83.4616L17.9581 83.4567C10.9402 83.2787 5.30486 77.5341 5.30475 70.4733L5.30963 70.1384C5.40384 66.4194 7.06328 63.0905 9.65143 60.7809L9.26959 61.1628L13.5001 65.3923C12.1499 66.6664 11.3049 68.4705 11.3047 70.4733C11.3049 74.3324 14.434 77.4612 18.293 77.4616C20.296 77.4616 22.1009 76.6175 23.3751 75.2673L27.6124 79.5056L27.8497 79.2673Z" fill="#232221"></path><path d="M9.97247 22.4603C7.53567 20.0981 6.0194 16.7921 6.01935 13.1302L6.02326 12.7953C6.20094 5.7726 11.9499 0.134176 19.0154 0.134154L19.3514 0.138061C22.9576 0.22965 26.1959 1.79283 28.4959 4.24646L28.3406 4.09021L24.1024 8.32947C22.8269 6.9783 21.0201 6.13426 19.0154 6.13415C15.1517 6.13418 12.0194 9.26647 12.0193 13.1302C12.0194 15.135 12.8635 16.9416 14.2147 18.2172L9.97247 22.4603Z" fill="#232221"></path><path d="M36.6507 4.09473C39.1006 1.57059 42.5282 3.31132e-05 46.3235 -4.22814e-07C53.7684 0.000131184 59.8038 6.03562 59.804 13.4805C59.804 17.8059 57.7661 21.6554 54.5989 24.1221L55.639 23.082L51.4661 18.9102C52.9049 17.5468 53.804 15.619 53.804 13.4805C53.8038 9.34933 50.4547 6.00013 46.3235 6C44.1847 6.00003 42.2572 6.89982 40.8939 8.33887L36.6507 4.09473Z" fill="#232221"></path></svg></g></g></svg></g><g id="dark-icon"><svg xmlns="http://www.w3.org/2000/svg" version="1.1" xmlns:xlink="http://www.w3.org/1999/xlink" width="1000" height="1000"><g><g transform="matrix(11.904761904761905,0,0,11.904761904761905,107.14285714285711,0)"><svg xmlns="http://www.w3.org/2000/svg" width="66" height="84" viewBox="0 0 66 84" fill="none"><line x1="2.13631" y1="42.8429" x2="38.8557" y2="6.12357" stroke="#ECE8DA" stroke-width="6"></line><path d="M11.3195 63.3233L53.6899 20.9529" stroke="#ECE8DA" stroke-width="6"></path><path d="M25.4593 77.4213L63.5657 39.315" stroke="#ECE8DA" stroke-width="6"></path><line x1="2.12132" y1="38.6232" x2="40.2368" y2="76.7387" stroke="#ECE8DA" stroke-width="6"></line><line x1="11.9803" y1="20.2295" x2="54.3836" y2="62.6328" stroke="#ECE8DA" stroke-width="6"></line><line x1="26.1542" y1="6.14315" x2="63.5473" y2="43.5363" stroke="#ECE8DA" stroke-width="6"></line><path d="M56.4117 60.4277C58.8454 62.7872 60.3608 66.0886 60.3609 69.7461C60.3609 76.9156 54.5489 82.7274 47.3795 82.7275C43.7219 82.7274 40.4206 81.2121 38.0611 78.7783L42.3023 74.5361C43.5752 75.8848 45.3785 76.7274 47.3795 76.7275C51.2352 76.7274 54.3609 73.6019 54.3609 69.7461C54.3608 67.7455 53.5179 65.9427 52.1695 64.6699L56.4117 60.4277Z" fill="#ECE8DA"></path><path d="M27.8497 79.2673C25.476 81.8454 22.0736 83.4616 18.2931 83.4616L17.9581 83.4567C10.9402 83.2787 5.30492 77.5341 5.30481 70.4733L5.30969 70.1384C5.4039 66.4194 7.06334 63.0905 9.65149 60.7809L9.26965 61.1628L13.5001 65.3923C12.1499 66.6664 11.3049 68.4705 11.3048 70.4733C11.3049 74.3324 14.4341 77.4612 18.2931 77.4616C20.296 77.4616 22.1009 76.6175 23.3751 75.2673L27.6124 79.5056L27.8497 79.2673Z" fill="#ECE8DA"></path><path d="M9.97247 22.4603C7.53567 20.0981 6.0194 16.7921 6.01935 13.1302L6.02326 12.7953C6.20094 5.7726 11.9499 0.134176 19.0154 0.134154L19.3514 0.138061C22.9576 0.22965 26.1959 1.79283 28.4959 4.24646L28.3406 4.09021L24.1024 8.32947C22.8269 6.9783 21.0201 6.13426 19.0154 6.13415C15.1517 6.13418 12.0194 9.26647 12.0193 13.1302C12.0194 15.135 12.8635 16.9416 14.2147 18.2172L9.97247 22.4603Z" fill="#ECE8DA"></path><path d="M36.6508 4.09473C39.1006 1.57059 42.5282 3.31132e-05 46.3236 -4.22814e-07C53.7685 0.000131184 59.8038 6.03562 59.8041 13.4805C59.804 17.8059 57.7662 21.6554 54.599 24.1221L55.639 23.082L51.4662 18.9102C52.9049 17.5468 53.804 15.619 53.8041 13.4805C53.8038 9.34933 50.4548 6.00013 46.3236 6C44.1848 6.00003 42.2573 6.89982 40.8939 8.33887L36.6508 4.09473Z" fill="#ECE8DA"></path></svg></g></g></svg></g></svg>