<svg width="500" height="500" viewBox="0 0 500 500" fill="none" xmlns="http://www.w3.org/2000/svg">
<path d="M98.4447 209.434V220.617H98.9467C99.9464 219.06 101.254 217.474 102.869 215.86C104.481 214.246 106.458 212.801 108.796 211.518C111.133 210.243 113.776 209.183 116.726 208.347C119.672 207.514 122.986 207.094 126.658 207.094C132.335 207.094 137.564 208.181 142.351 210.35C147.135 212.524 151.255 215.501 154.706 219.283C158.154 223.068 160.824 227.52 162.718 232.638C164.61 237.758 165.556 243.267 165.556 249.165C165.556 255.063 164.637 260.6 162.8 265.775C160.966 270.951 158.347 275.457 154.954 279.297C151.558 283.136 147.443 286.202 142.601 288.478C137.758 290.759 132.276 291.899 126.157 291.899C120.48 291.899 115.277 290.731 110.548 288.395C105.815 286.058 102.172 282.888 99.6137 278.877H99.2809V329.628H79.2478V209.434H98.4447ZM145.189 249.164C145.189 246.047 144.715 242.959 143.77 239.898C142.822 236.838 141.404 234.084 139.512 231.634C137.619 229.19 135.228 227.212 132.333 225.708C129.439 224.206 126.045 223.455 122.151 223.455C118.478 223.455 115.193 224.234 112.302 225.793C109.407 227.352 106.929 229.357 104.873 231.802C102.812 234.252 101.255 237.034 100.198 240.151C99.1382 243.267 98.6125 246.386 98.6125 249.5C98.6125 252.616 99.1382 255.705 100.198 258.763C101.255 261.827 102.812 264.58 104.873 267.03C106.931 269.477 109.407 271.454 112.302 272.953C115.193 274.457 118.478 275.206 122.151 275.206C126.045 275.206 129.439 274.43 132.333 272.87C135.226 271.311 137.619 269.309 139.512 266.859C141.404 264.412 142.822 261.63 143.77 258.513C144.715 255.396 145.189 252.279 145.189 249.164ZM340.457 205.605V294.404C340.457 299.189 340.066 303.725 339.288 308.009C338.506 312.293 337.035 316.021 334.864 319.195C332.695 322.369 329.743 324.897 326.015 326.79C322.285 328.684 317.418 329.628 311.407 329.628C309.739 329.628 308.07 329.516 306.399 329.295C304.73 329.071 303.395 328.847 302.393 328.625L304.064 311.597C304.955 311.821 305.898 311.987 306.901 312.099C307.903 312.208 308.791 312.265 309.571 312.265C311.907 312.265 313.798 311.821 315.247 310.93C316.692 310.037 317.806 308.813 318.588 307.257C319.363 305.698 319.865 303.89 320.089 301.83C320.31 299.771 320.422 297.575 320.422 295.237V205.605H340.457ZM290.436 260.176V272.613L302.366 269.013L304.71 276.222L292.827 280.274L300.203 290.733L293.985 295.244L286.22 284.97L278.659 294.973L272.619 290.374L279.995 280.274L268.022 275.954L270.367 268.739L282.39 272.613V260.176H290.436ZM408.734 230.801C406.952 228.463 404.504 226.434 401.388 224.708C398.271 222.983 394.877 222.119 391.204 222.119C387.975 222.119 385.029 222.788 382.359 224.124C379.685 225.456 378.352 227.685 378.352 230.801C378.352 233.916 379.825 236.118 382.774 237.394C385.723 238.674 390.038 239.983 395.713 241.318C398.717 241.988 401.748 242.877 404.811 243.989C407.873 245.101 410.655 246.576 413.16 248.413C415.661 250.248 417.693 252.531 419.252 255.258C420.808 257.986 421.59 261.296 421.59 265.191C421.59 270.091 420.67 274.236 418.834 277.629C416.999 281.024 414.55 283.778 411.488 285.893C408.425 288.007 404.865 289.538 400.803 290.483C396.74 291.428 392.542 291.901 388.199 291.901C381.964 291.901 375.901 290.76 370.002 288.479C364.103 286.201 359.206 282.944 355.312 278.717L368.5 266.361C370.726 269.256 373.618 271.648 377.182 273.539C380.743 275.432 384.692 276.376 389.035 276.376C390.48 276.376 391.955 276.212 393.459 275.877C394.961 275.544 396.351 275.017 397.632 274.293C398.91 273.568 399.939 272.596 400.721 271.37C401.497 270.144 401.887 268.645 401.887 266.861C401.887 263.52 400.357 261.131 397.299 259.683C394.236 258.236 389.643 256.789 383.526 255.343C380.52 254.673 377.597 253.813 374.759 252.753C371.922 251.696 369.389 250.306 367.163 248.581C364.935 246.855 363.157 244.716 361.822 242.152C360.487 239.593 359.817 236.421 359.817 232.636C359.817 228.184 360.734 224.347 362.573 221.12C364.407 217.889 366.831 215.252 369.834 213.187C372.838 211.13 376.233 209.599 380.018 208.599C383.8 207.596 387.697 207.094 391.703 207.094C397.488 207.094 403.138 208.097 408.646 210.098C414.154 212.103 418.521 215.166 421.752 219.282L408.734 230.801ZM249.223 234.889C247.164 230.273 244.3 226.377 240.627 223.204C236.955 220.033 232.641 217.611 227.69 215.943C222.736 214.275 217.365 213.438 211.581 213.438C209.465 213.438 207.1 213.553 204.486 213.771C201.869 213.998 199.617 214.385 197.725 214.943L198.893 189.399H247.139V171.371H179.862L177.858 235.973C179.635 235.085 181.669 234.25 183.951 233.469C186.231 232.692 188.568 231.996 190.961 231.385C193.354 230.773 195.804 230.302 198.308 229.964C200.812 229.631 203.175 229.465 205.403 229.465C208.629 229.465 211.801 229.826 214.918 230.549C218.033 231.273 220.844 232.554 223.348 234.389C225.853 236.223 227.882 238.646 229.442 241.65C230.998 244.653 231.778 248.438 231.778 253.002C231.778 256.564 231.194 259.765 230.025 262.601C228.857 265.436 227.271 267.804 225.269 269.694C223.264 271.588 220.929 273.034 218.256 274.034C215.585 275.039 212.748 275.538 209.742 275.538C204.402 275.538 199.781 274.118 195.886 271.281C191.989 268.443 189.21 264.688 187.539 260.012L187.316 260.094L172.819 273.679C175.751 278.461 179.531 282.461 184.201 285.638C190.988 290.254 199.334 292.567 209.242 292.567C215.14 292.567 220.704 291.619 225.935 289.729C231.165 287.839 235.729 285.111 239.624 281.547C243.518 277.988 246.607 273.618 248.891 268.443C251.17 263.268 252.311 257.4 252.311 250.831C252.312 244.821 251.283 239.511 249.223 234.889Z" fill="#ED225D"/>
</svg>
